Coordinates
version=1
nRows=11
nColumns=36
inDegrees=yes

Units are S.I. units (second, meters, Newtons, ...)
If the header above contains a line with 'inDegrees', this indicates whether rotational values are in degrees (yes) or radians (no).

endheader
time	pelvis_tilt	pelvis_list	pelvis_rotation	pelvis_tx	pelvis_ty	pelvis_tz	hip_flexion_r	hip_adduction_r	hip_rotation_r	knee_angle_r	knee_angle_r_beta	ankle_angle_r	subtalar_angle_r	mtp_angle_r	hip_flexion_l	hip_adduction_l	hip_rotation_l	knee_angle_l	knee_angle_l_beta	ankle_angle_l	subtalar_angle_l	mtp_angle_l	lumbar_extension	lumbar_bending	lumbar_rotation	arm_flex_r	arm_add_r	arm_rot_r	elbow_flex_r	pro_sup_r	arm_flex_l	arm_add_l	arm_rot_l	elbow_flex_l	pro_sup_l
      8.11000000	     -3.08565624	      0.18690236	     -0.48895389	     -0.15960643	      1.05127475	     -0.65020842	      0.82805439	     -8.00682568	    -16.52749697	      1.31427911	      0.02293850	      5.05506999	     10.45429614	     -7.49999987	      1.45730302	     -5.60139425	     -6.95897101	      0.62143063	      0.01084601	      5.06704298	      8.84135795	     -7.49999987	      1.01612639	      0.17432104	     -5.60634293	     -8.79152144	     -5.43294645	    -10.23369254	     38.88236621	    103.24823161	    -14.89175040	     -4.66654670	     -4.18934954	     38.84720863	     90.05151739
      8.12000000	     -3.03046140	      0.19434364	     -0.46211349	     -0.15890934	      1.05126473	     -0.65023381	      0.71674362	     -8.01493271	    -16.51016182	      1.32318484	      0.02309393	      5.13870692	     10.41545455	     -7.49999987	      1.34850529	     -5.58406615	     -6.78565412	      0.60582730	      0.01057368	      5.03997663	      8.60413111	     -7.49999987	      1.08555128	      0.13421721	     -5.60691363	     -8.93564955	     -5.44237405	    -10.06612063	     38.96328299	    102.91533771	    -15.04787277	     -4.57177959	     -4.23766014	     38.91561424	     89.99724069
      8.13000000	     -3.01405815	      0.17425421	     -0.44179453	     -0.15827195	      1.05123437	     -0.65015963	      0.65237625	     -7.98234244	    -16.43229002	      1.32703000	      0.02316104	      5.16735643	     10.30499863	     -7.49999987	      1.29599414	     -5.61170033	     -6.69552652	      0.60753320	      0.01060345	      5.07886052	      8.55928488	     -7.49999987	      1.19103340	      0.12205693	     -5.64542037	     -9.03791822	     -5.41703255	    -10.02439157	     38.98641613	    103.00119854	    -15.28010055	     -4.53694902	     -4.19737447	     39.09915577	     89.80179047
      8.14000000	     -2.95574936	      0.15873746	     -0.40239152	     -0.15760537	      1.05126387	     -0.65006894	      0.52742355	     -7.94660315	    -16.37954878	      1.30364957	      0.02275298	      5.14032859	     10.13154995	     -7.49999987	      1.20629822	     -5.64206936	     -6.82251470	      0.62133159	      0.01084428	      5.24171800	      8.92062863	     -7.49999987	      1.23848332	      0.09507359	     -5.72260721	     -9.15091661	     -5.46747615	     -9.38958747	     39.31535608	     98.91359164	    -15.52641476	     -4.60641566	     -3.74854759	     39.62056396	     86.79170017
      8.15000000	     -2.96287348	      0.17019415	     -0.32467890	     -0.15705080	      1.05122071	     -0.65012327	      0.47925547	     -7.95302970	    -16.39272020	      1.30792386	      0.02282758	      5.19930446	     10.02401879	     -7.49999987	      1.17464250	     -5.60686346	     -6.39799968	      0.59895381	      0.01045372	      5.10166244	      8.33247909	     -7.49999987	      1.35541147	      0.05632839	     -5.79841314	     -9.25130422	     -5.36265516	     -9.98347261	     39.10991256	    102.89596534	    -15.71652867	     -4.50049955	     -4.10940141	     39.54785383	     88.78690250
      8.16000000	     -2.86994639	      0.15343488	     -0.38034694	     -0.15644695	      1.05130635	     -0.64981297	      0.30026581	     -7.86578371	    -15.98748273	      1.18384801	      0.02066205	      4.89683838	      9.24544490	     -7.49999987	      1.04434937	     -5.68356322	     -6.99263594	      0.63643616	      0.01110791	      5.52621483	      9.49599797	     -7.49999987	      1.33713100	      0.03505820	     -5.74296907	     -9.40734490	     -5.35326793	     -9.53909464	     39.56240643	     99.14727228	    -15.93664274	     -4.52716130	     -3.98575556	     39.97254494	     86.60027243
      8.17000000	     -2.90022616	      0.18778874	     -0.22933967	     -0.15607072	      1.05122663	     -0.65004665	      0.28705845	     -7.93629268	    -16.32426315	      1.23581870	      0.02156911	      5.19947776	      9.76568702	     -7.49999987	      1.05954204	     -5.59993949	     -6.31192897	      0.58867790	      0.01027437	      5.15104697	      8.32806818	     -7.49999987	      1.44029933	     -0.02445759	     -5.89272827	     -9.44251416	     -5.23167524	    -10.21066943	     39.23971638	    102.62955598	    -16.07079665	     -4.30401393	     -4.67097059	     39.95542223	     88.19538732
      8.18000000	     -2.85369198	      0.18365641	     -0.19938811	     -0.15564355	      1.05127048	     -0.65004401	      0.21390145	     -7.95069343	    -16.54001721	      1.26272558	      0.02203872	      5.31356057	     10.15181634	     -7.49999987	      0.98776562	     -5.61203140	     -6.46992977	      0.58420981	      0.01019638	      5.23654118	      8.62041403	     -7.49999987	      1.45346446	     -0.05423537	     -5.95244248	     -9.47753669	     -5.34277410	     -9.45090183	     39.36445597	     99.07884868	    -16.23389526	     -4.31386511	     -4.44090863	     40.38820938	     85.35367237
      8.19000000	     -2.80408251	      0.17329738	     -0.12679223	     -0.15527617	      1.05128902	     -0.65011439	      0.12571773	     -7.95551105	    -16.76033085	      1.27737353	      0.02229437	      5.38626566	     10.45576541	     -7.49999987	      0.92403994	     -5.61148355	     -6.35880397	      0.57618892	      0.01005639	      5.17523806	      8.43327305	     -7.49999987	      1.44540300	     -0.07806076	     -6.03791443	     -9.54271703	     -5.33801098	     -9.37020906	     39.44819052	     98.46750393	    -16.40903897	     -4.30583033	     -4.48283779	     40.67957377	     84.70468992
      8.20000000	     -2.79373809	      0.18910678	     -0.11094687	     -0.15499177	      1.05126133	     -0.65011990	      0.06478184	     -7.94647067	    -16.36251985	      1.23735477	      0.02159591	      5.24927821	      9.74416962	     -7.49999987	      0.90548471	     -5.59825817	     -6.46012524	      0.58030255	      0.01012819	      5.21520775	      8.57570947	     -7.49999987	      1.46127177	     -0.11495537	     -5.95865869	     -9.69544553	     -5.21311232	    -10.23645054	     39.36002395	    103.28824699	    -16.46057586	     -4.23239910	     -4.94883696	     40.41956467	     88.21869103
      8.21000000	     -2.76004526	      0.20155140	     -0.04737086	     -0.15472403	      1.05127017	     -0.65016069	     -0.01792545	     -7.95316275	    -16.34242824	      1.22117241	      0.02131348	      5.24291006	      9.64964910	     -7.49999987	      0.86804223	     -5.58371650	     -6.40220721	      0.57788357	      0.01008597	      5.20467915	      8.54829479	     -7.49999987	      1.44702173	     -0.16720421	     -6.00807525	     -9.75266648	     -5.23080911	    -10.13543132	     39.39489282	    103.14314428	    -16.58651590	     -4.23789079	     -5.03896138	     40.64297697	     87.98252976
